<?xml version="1.0" encoding="UTF-8"?>
<!DOCTYPE svg PUBLIC "-//W3C//DTD SVG 1.1//EN" "http://www.w3.org/Graphics/SVG/1.1/DTD/svg11.dtd">
<svg xmlns="http://www.w3.org/2000/svg" version="1.1" width="47px" height="47px" style="shape-rendering:geometricPrecision; text-rendering:geometricPrecision; image-rendering:optimizeQuality; fill-rule:evenodd; clip-rule:evenodd" xmlns:xlink="http://www.w3.org/1999/xlink">
<g><path style="opacity:1" fill="#c2b089" d="M 16.5,-0.5 C 21.1667,-0.5 25.8333,-0.5 30.5,-0.5C 33.7016,0.862194 36.7016,2.69553 39.5,5C 42.2289,8.30753 44.5623,11.8075 46.5,15.5C 46.5,20.5 46.5,25.5 46.5,30.5C 44.6921,33.4362 42.8588,36.4362 41,39.5C 37.846,42.5116 34.346,44.8449 30.5,46.5C 25.5,46.5 20.5,46.5 15.5,46.5C 7.96969,43.3944 2.63635,38.0611 -0.5,30.5C -0.5,25.5 -0.5,20.5 -0.5,15.5C 3.00922,7.75827 8.67588,2.42494 16.5,-0.5 Z"/></g>
<g><path style="opacity:1" fill="#e9dec8" d="M 17.5,2.5 C 32.943,1.02702 41.6096,7.86035 43.5,23C 43.161,31.6674 39.161,38.0007 31.5,42C 18.834,46.2444 9.66737,42.4111 4,30.5C 0.70026,17.3249 5.20026,7.99156 17.5,2.5 Z"/></g>
<g><path style="opacity:1" fill="#dfd0af" d="M 17.5,5.5 C 33.9962,4.5441 41.4962,12.2108 40,28.5C 34.1487,40.0059 25.3154,43.1725 13.5,38C 5.59823,32.1793 3.43156,24.6793 7,15.5C 9.7379,11.2595 13.2379,7.9262 17.5,5.5 Z"/></g>
<g><path style="opacity:1" fill="#b2a27d" d="M 13.5,18.5 C 19.5092,18.3338 25.5092,18.5005 31.5,19C 34.0544,21.2691 34.0544,23.6025 31.5,26C 25.8333,26.6667 20.1667,26.6667 14.5,26C 12.1632,23.8063 11.8299,21.3063 13.5,18.5 Z"/></g>
<g><path style="opacity:1" fill="#b3a37e" d="M 17.5,27.5 C 20.9216,31.4082 24.4216,31.4082 28,27.5C 27.9545,30.5283 26.2878,31.8617 23,31.5C 19.8665,31.8581 18.0332,30.5248 17.5,27.5 Z"/></g>
</svg>
